<svg width="196" height="285" viewBox="0 0 196 285" fill="none" xmlns="http://www.w3.org/2000/svg">
<path d="M90.427 73.6938C90.7024 77.5434 93.7268 80.5683 97.5765 80.5683C101.426 80.5683 104.451 77.5434 104.726 73.6938L108.301 11.2742C108.576 8.24939 107.475 5.22453 105.276 3.02479C103.076 0.824942 100.326 0 97.5765 0C94.8268 0 92.0768 1.09994 89.877 3.02479C87.6772 5.22453 86.5776 8.24939 86.8526 11.2742L90.427 73.6938Z" fill="black"/>
<path d="M129.197 106.691C125.897 104.766 121.498 105.866 119.298 109.441C114.898 117.14 106.649 122.09 97.2997 122.09C87.9505 122.09 79.7011 116.865 75.3015 109.441C73.3767 106.141 68.9771 104.766 65.4025 106.691C62.1028 108.616 60.7279 113.016 62.6527 116.59C69.5272 128.414 82.451 136.389 97.0247 136.389C111.873 136.389 124.522 128.414 131.397 116.59C133.871 113.291 132.772 108.891 129.197 106.691Z" fill="black"/>
<path d="M68.1541 79.744C69.2539 83.3187 73.1038 85.5185 76.6785 84.4185C80.2532 83.3186 82.728 79.7439 81.9031 75.8942L70.6289 21.4488C70.0791 18.6991 68.4291 16.2243 65.6792 14.5744C63.2045 13.1995 60.455 12.9246 57.7051 13.4745C55.2304 14.0243 52.7554 15.9493 51.3806 18.424C49.7307 21.1739 49.7306 24.1987 50.5553 26.9484L68.1541 79.744Z" fill="black"/>
<path d="M49.1781 92.1179C51.3779 95.4176 55.5027 96.2424 58.8024 94.3175C62.1021 92.3927 63.4771 88.2681 61.5522 84.9684L39.5541 41.247C38.4542 38.7723 36.2542 36.8474 33.2295 36.0226C30.4798 35.1974 28.0051 35.7472 25.8054 37.1225C23.6055 38.4973 21.9557 40.4222 21.1307 43.1719C20.3055 45.9217 20.8552 48.9464 22.5056 51.1462L49.1781 92.1179Z" fill="black"/>
<path d="M118.197 84.4185C121.772 85.5185 125.621 83.3187 126.721 79.744L144.32 26.9485C145.145 24.1987 144.87 21.1739 143.495 18.4241C142.12 15.9493 139.645 14.2995 137.17 13.4746C134.696 12.9248 131.671 13.1991 129.196 14.5745C126.446 16.2243 124.796 18.6991 124.246 21.4489L112.973 75.8943C112.423 79.744 114.622 83.3187 118.197 84.4185Z" fill="black"/>
<path d="M136.077 94.3164C139.376 96.2413 143.501 95.1417 145.701 92.1167L172.648 51.1451C174.298 48.9453 174.848 45.9206 174.023 43.1708C173.198 40.421 171.549 38.4962 169.349 37.1213C167.149 35.7465 164.399 35.4714 161.924 36.0214C159.175 36.8466 156.7 38.7712 155.6 41.2459L133.602 84.9672C131.677 88.2669 133.052 92.6666 136.077 94.3164Z" fill="black"/>
<path d="M193.268 263.428L155.046 212.557C148.172 203.483 144.047 191.934 144.047 180.11C144.047 168.011 148.172 156.737 155.046 147.663L193.268 96.5169C197.118 89.6425 194.918 80.8432 188.043 76.9936C181.169 73.1439 172.37 75.3438 168.52 82.2182L144.597 123.74C134.423 141.063 116.275 150.962 97.5761 150.687C78.8776 150.687 60.4541 141.063 50.555 123.74L26.632 82.2182C22.7822 75.3438 13.9831 73.1439 7.10862 76.9936C0.23419 80.8432 -1.9654 89.6425 1.8843 96.5169L40.106 147.388C46.9805 156.462 51.1049 168.011 51.1049 179.835C51.1049 191.934 46.9805 203.208 40.106 212.282L1.8843 263.153C-1.9654 270.027 0.23419 278.826 7.10862 282.676C13.9831 286.526 22.7822 284.326 26.632 277.452L50.555 235.93C60.729 218.607 78.8776 208.707 97.5761 208.982C116.275 208.982 134.698 218.607 144.597 235.93L168.52 277.452C172.37 284.326 181.169 286.526 188.043 282.676C194.918 278.826 197.118 270.027 193.268 263.428Z" fill="black"/>
</svg>
